<mxfile host="app.diagrams.net" modified="2023-06-19T07:38:37.272Z" agent="Mozilla/5.0 (Macintosh; Intel Mac OS X 10_15_7) AppleWebKit/537.36 (KHTML, like Gecko) Chrome/113.0.0.0 Safari/537.36 Edg/113.0.1774.50" version="21.3.7" etag="LZYefhSeup3ziUVyPP2r" type="github">
  <diagram name="第 1 页" id="3TX0gdCo4oS67vszjJRk">
    <mxGraphModel>
      <root>
        <mxCell id="0" />
        <mxCell id="1" parent="0" />
      </root>
    </mxGraphModel>
  </diagram>
</mxfile>
